<?xml version="1.0" encoding="utf-8"?>
<!-- Generator: Adobe Illustrator 18.0.0, SVG Export Plug-In . SVG Version: 6.00 Build 0)  -->
<!DOCTYPE svg PUBLIC "-//W3C//DTD SVG 1.1//EN" "http://www.w3.org/Graphics/SVG/1.1/DTD/svg11.dtd">
<svg version="1.1" id="Layer_1" xmlns="http://www.w3.org/2000/svg" xmlns:xlink="http://www.w3.org/1999/xlink" x="0px" y="0px"
	 viewBox="0 0 39.1 60.3" enable-background="new 0 0 39.1 60.3" xml:space="preserve">
<path fill="#2CA4DA" d="M38.7,36.8c-0.7-3.2-1.9-6.3-3.4-9.2c-1.8-3.5-3.9-6.8-6.1-10.1c-2.4-3.7-4.8-7.3-7-11.2
	c-1.1-2-2.2-4.1-2.5-6.4c-0.1,0-0.1,0.1-0.1,0.2c-0.3,0.9-0.6,1.7-0.9,2.5c-1.2,3-2.8,5.8-4.6,8.6c-2.7,4.2-5.4,8.4-8.1,12.7
	c-2,3.3-3.8,6.6-5,10.3C0,38-0.4,41.7,0.5,45.5C2.1,51.9,6,56.3,12,58.9c2.2,0.9,4.5,1.3,6.8,1.4c0.5,0,1,0,1.5,0
	c3.3-0.1,6.4-0.9,9.2-2.5c3.5-2.1,6.2-4.9,8-8.6c1.1-2.3,1.6-4.8,1.7-7.3c0-0.5,0-1.1,0-1.6C39.1,39.1,39,37.9,38.7,36.8z"/>
</svg>
